HIERARCHY
ROOT hip
{
	OFFSET 0.000000 0.000000 0.000000
	CHANNELS 6 Xposition Yposition Zposition Zrotation Yrotation Xrotation 
	JOINT lhipjoint
	{
		OFFSET 0.000000 0.000000 0.000000
		CHANNELS 3 Zrotation Yrotation Xrotation
		JOINT lfemur
		{
			OFFSET 1.363060 -1.794630 0.839290
			CHANNELS 3 Zrotation Yrotation Xrotation
			JOINT ltibia
			{
				OFFSET 2.448110 -6.726130 0.000000
				CHANNELS 3 Zrotation Yrotation Xrotation
				JOINT lfoot
				{
					OFFSET 2.562200 -7.039590 0.000000
					CHANNELS 3 Zrotation Yrotation Xrotation
					JOINT ltoes
					{
						OFFSET 0.157640 -0.433110 2.322550
						CHANNELS 3 Zrotation Yrotation Xrotation
						End Site
						{
							OFFSET 0.000000 0.000000 0.000000
						}
					}
				}
			}
		}
	}
	JOINT rhipjoint
	{
		OFFSET 0.000000 0.000000 0.000000
		CHANNELS 3 Zrotation Yrotation Xrotation
		JOINT rfemur
		{
			OFFSET -1.305520 -1.794630 0.839290
			CHANNELS 3 Zrotation Yrotation Xrotation
			JOINT rtibia
			{
				OFFSET -2.542530 -6.985550 0.000000
				CHANNELS 3 Zrotation Yrotation Xrotation
				JOINT rfoot
				{
					OFFSET -2.568260 -7.056230 0.000000
					CHANNELS 3 Zrotation Yrotation Xrotation
					JOINT rtoes
					{
						OFFSET -0.164730 -0.452590 2.363150
						CHANNELS 3 Zrotation Yrotation Xrotation
						End Site
						{
							OFFSET 0.000000 0.000000 0.000000
						}
					}
				}
			}
		}
	}
	JOINT lowerback
	{
		OFFSET 0.000000 0.000000 0.000000
		CHANNELS 3 Zrotation Yrotation Xrotation
		JOINT upperback
		{
			OFFSET 0.028270 2.035590 -0.193380
			CHANNELS 3 Zrotation Yrotation Xrotation
			JOINT thorax
			{
				OFFSET 0.056720 2.048850 -0.042750
				CHANNELS 3 Zrotation Yrotation Xrotation
				JOINT lowerneck
				{
					OFFSET 0.000000 0.000000 0.000000
					CHANNELS 3 Zrotation Yrotation Xrotation
					JOINT upperneck
					{
						OFFSET -0.054170 1.746240 0.172020
						CHANNELS 3 Zrotation Yrotation Xrotation
						JOINT head
						{
							OFFSET 0.104070 1.761360 -0.123970
							CHANNELS 3 Zrotation Yrotation Xrotation
							End Site
							{
								OFFSET 0.000000 0.000000 0.000000
							}
						}
					}
				}
				JOINT lclavicle
				{
					OFFSET 0.000000 0.000000 0.000000
					CHANNELS 3 Zrotation Yrotation Xrotation
					JOINT lhumerus
					{
						OFFSET 3.362410 1.200890 -0.311210
						CHANNELS 3 Zrotation Yrotation Xrotation
						JOINT lradius
						{
							OFFSET 4.983000 -0.000000 -0.000000
							CHANNELS 3 Zrotation Yrotation Xrotation
							JOINT lwrist
							{
								OFFSET 3.483560 -0.000000 -0.000000
								CHANNELS 3 Zrotation Yrotation Xrotation
								JOINT lhand
								{
									OFFSET 0.000000 0.000000 0.000000
									CHANNELS 3 Zrotation Yrotation Xrotation
									JOINT lfingers
									{
										OFFSET 0.715260 -0.000000 -0.000000
										CHANNELS 3 Zrotation Yrotation Xrotation
										End Site
										{
											OFFSET 0.000000 0.000000 0.000000
										}
									}
								}
								JOINT lthumb
								{
									OFFSET 0.000000 0.000000 0.000000
									CHANNELS 3 Zrotation Yrotation Xrotation
									End Site
									{
										OFFSET 0.000000 0.000000 0.000000
									}
								}
							}
						}
					}
				}
				JOINT rclavicle
				{
					OFFSET 0.000000 0.000000 0.000000
					CHANNELS 3 Zrotation Yrotation Xrotation
					JOINT rhumerus
					{
						OFFSET -3.136600 1.374050 -0.404650
						CHANNELS 3 Zrotation Yrotation Xrotation
						JOINT rradius
						{
							OFFSET -5.241900 -0.000000 -0.000000
							CHANNELS 3 Zrotation Yrotation Xrotation
							JOINT rwrist
							{
								OFFSET -3.444170 -0.000000 -0.000000
								CHANNELS 3 Zrotation Yrotation Xrotation
								JOINT rhand
								{
									OFFSET 0.000000 0.000000 0.000000
									CHANNELS 3 Zrotation Yrotation Xrotation
									JOINT rfingers
									{
										OFFSET -0.622530 -0.000000 -0.000000
										CHANNELS 3 Zrotation Yrotation Xrotation
										End Site
										{
											OFFSET 0.000000 0.000000 0.000000
										}
									}
								}
								JOINT rthumb
								{
									OFFSET 0.000000 0.000000 0.000000
									CHANNELS 3 Zrotation Yrotation Xrotation
									End Site
									{
										OFFSET 0.000000 0.000000 0.000000
									}
								}
							}
						}
					}
				}
			}
		}
	}
}
MOTION
Frames: 5
Frame Time: 0.008333
1.463617 16.908593 3.587605 175.914897 -3.070411 -174.596519 -4.751791 -2.821290 -1.513947 -16.850604 -3.438175 -9.744482 6.569684 15.714629 45.577647 0.917277 -2.231549 -17.986446 2.188100 -9.247400 -26.572400 3.524450 1.740953 -0.693558 9.037412 9.955895 -26.271087 -7.538644 -13.225688 43.598016 -0.049524 18.757481 -6.473462 -0.628700 5.073700 -14.119000 4.993135 0.351166 -0.113768 1.515395 -0.097210 -3.408876 -3.850626 -0.274887 11.350960 -1.089067 11.154525 -4.524059 -4.808411 16.800729 12.690393 -3.963000 8.729200 2.411900 -5.421710 -2.348045 3.351447 -71.241170 -1.266938 55.833091 31.147428 -43.153388 -11.446904 0.106109 1.858962 13.947729 36.116474 -11.371311 -9.858500 -7.125000 0.000000 0.000000 6.132800 13.320100 -4.581800 7.394501 3.856620 4.631767 72.019121 -0.207783 23.907442 -27.049946 44.474995 -8.601987 -0.150504 -2.330108 -5.374058 -12.740522 11.823013 -3.087600 7.125000 0.000000 0.000000 10.263500 -15.603100 7.243400 
1.487177 16.899367 3.541472 175.799493 -3.088946 -174.631841 -4.745917 -2.783675 -1.499604 -17.179107 -3.372884 -10.417718 6.410778 15.471441 44.821911 0.958916 -2.845515 -18.133795 2.269400 -9.406100 -27.074100 3.526083 1.754336 -0.706308 9.028232 9.852818 -26.210638 -7.591564 -13.317068 43.903461 -0.059431 18.909885 -6.733254 -0.613300 5.012300 -13.943500 4.829150 0.354858 -0.146482 1.510985 -0.073567 -3.400987 -3.756597 -0.284629 11.390776 -1.060841 11.302263 -4.475047 -4.909041 17.035662 12.696331 -4.002200 8.846700 2.448700 -5.413859 -2.343494 3.353909 -71.440441 -1.102030 55.729172 30.349656 -42.548722 -10.991594 0.113148 1.848586 14.059430 35.850804 -11.335062 -9.725700 -7.125000 0.000000 0.000000 5.960100 13.435300 -4.436700 7.406494 3.870403 4.636436 71.951763 -0.399455 23.968611 -27.075667 44.505811 -8.619872 -0.166786 -2.322212 -5.594576 -12.755484 12.104829 -3.143100 7.125000 0.000000 0.000000 10.266300 -15.330100 7.306800 
1.510736 16.888975 3.495071 175.727745 -3.095286 -174.686512 -4.739991 -2.748935 -1.486033 -17.463768 -3.289849 -11.099298 6.267709 15.240384 44.122509 0.979949 -3.251513 -18.160678 2.194200 -9.259300 -26.610000 3.522001 1.768636 -0.722797 9.081792 9.726720 -26.137222 -7.646558 -13.411558 44.212118 -0.068591 19.096242 -6.989019 -0.605600 4.981100 -13.854600 4.715750 0.372169 -0.166038 1.507311 -0.039085 -3.388623 -3.681571 -0.285773 11.444173 -1.029915 11.446374 -4.425949 -4.997670 17.261973 12.679447 -4.039100 8.960200 2.474100 -5.404075 -2.337078 3.357090 -71.648153 -0.989848 55.635099 29.531867 -41.911658 -10.531627 0.117080 1.838041 14.021865 35.580982 -11.316696 -9.604500 -7.125000 0.000000 0.000000 5.780400 13.529100 -4.290100 7.413602 3.877810 4.642167 71.910178 -0.543747 23.981223 -27.045385 44.496507 -8.615043 -0.183678 -2.315041 -5.814116 -12.782058 12.396694 -3.203600 7.125000 0.000000 0.000000 10.262200 -15.045600 7.367400 
1.533757 16.875628 3.449117 175.696745 -3.109237 -174.773969 -4.736088 -2.718981 -1.472076 -17.706434 -3.158568 -11.754187 6.142018 15.030226 43.496115 0.988107 -3.396231 -18.169897 2.126500 -9.124800 -26.186400 3.511741 1.787324 -0.744068 9.186057 9.561885 -26.044489 -7.704625 -13.510706 44.530414 -0.073780 19.316569 -7.205442 -0.584800 4.896300 -13.612900 4.633628 0.379025 -0.154995 1.514361 -0.022174 -3.374056 -3.580746 -0.296623 11.488854 -0.975074 11.593000 -4.335767 -5.149667 17.499647 12.627007 -4.107100 9.077900 2.493200 -5.384299 -2.326912 3.361283 -71.929346 -0.892492 55.479654 28.677312 -41.238144 -10.065536 0.125731 1.828970 13.931785 35.383543 -11.452754 -9.616300 -7.125000 0.000000 0.000000 5.621800 13.418600 -4.184300 7.425461 3.890002 4.651282 71.863852 -0.684276 23.942653 -27.012642 44.480672 -8.609827 -0.200970 -2.304705 -5.968203 -12.780941 12.690086 -3.256900 7.125000 0.000000 0.000000 10.275400 -14.764800 7.440000 
1.555793 16.859952 3.403970 175.682394 -3.098388 -174.859203 -4.731213 -2.694158 -1.460838 -17.944003 -2.978152 -12.360282 6.033766 14.844509 42.948346 1.000254 -3.425526 -18.274847 2.046400 -8.962100 -25.676700 3.501968 1.801779 -0.763399 9.297275 9.460804 -25.961616 -7.769400 -13.611403 44.871719 -0.083704 19.520468 -7.441003 -0.571900 4.843000 -13.461300 4.594442 0.409403 -0.148401 1.515294 0.019093 -3.355789 -3.526247 -0.289909 11.550737 -0.885487 11.727047 -4.242178 -5.308082 17.720201 12.530647 -4.186500 9.187300 2.497800 -5.362947 -2.313563 3.365593 -72.204774 -0.848993 55.319914 27.794552 -40.523522 -9.594811 0.132764 1.818873 13.797414 35.215832 -11.588697 -9.637000 -7.125000 0.000000 0.000000 5.483100 13.303900 -4.093400 7.429294 3.898190 4.660643 71.891079 -0.796815 23.787775 -26.951650 44.446504 -8.593426 -0.216837 -2.295280 -6.027420 -12.747346 12.958725 -3.297300 7.125000 0.000000 0.000000 10.307400 -14.510100 7.521000 
